<svg xmlns="http://www.w3.org/2000/svg" width="1600" height="900" viewBox="0 0 1600 900" fill="none">
  <defs>
    <linearGradient id="bg" x1="0" y1="0" x2="1" y2="1">
      <stop stop-color="#f4efe9"/>
      <stop offset="0.55" stop-color="#bbc4d8"/>
      <stop offset="1" stop-color="#293650"/>
    </linearGradient>
  </defs>
  <rect width="1600" height="900" fill="url(#bg)"/>
  <g opacity="0.32" stroke="white">
    <path d="M80 160L420 70L670 190L920 85L1210 200L1490 90"/>
    <path d="M110 320L360 230L580 340L850 260L1110 360L1460 230"/>
    <path d="M100 530L390 450L690 560L960 470L1240 590L1500 460"/>
    <path d="M120 720L420 640L720 740L1010 650L1300 760L1510 670"/>
  </g>
  <g fill="#24344d">
    <rect x="840" y="250" width="90" height="350" rx="6"/>
    <rect x="970" y="210" width="120" height="390" rx="6"/>
    <rect x="1120" y="280" width="85" height="320" rx="6"/>
    <rect x="1240" y="190" width="95" height="410" rx="6"/>
    <rect x="1360" y="240" width="80" height="360" rx="6"/>
    <rect x="720" y="340" width="90" height="260" rx="6"/>
  </g>
  <g fill="rgba(255,255,255,0.85)">
    <circle cx="1180" cy="160" r="3"/><circle cx="1080" cy="260" r="3"/><circle cx="970" cy="190" r="3"/>
    <circle cx="1390" cy="220" r="3"/><circle cx="1260" cy="340" r="3"/><circle cx="1120" cy="420" r="3"/>
    <circle cx="1460" cy="370" r="3"/><circle cx="1320" cy="470" r="3"/><circle cx="1190" cy="540" r="3"/>
  </g>
  <g stroke="rgba(255,255,255,0.55)">
    <path d="M1180 160L1080 260L970 190L860 300L760 260"/>
    <path d="M1390 220L1260 340L1120 420L970 350L860 430"/>
    <path d="M1460 370L1320 470L1190 540L1030 500L890 570"/>
  </g>
  <path d="M650 900L1600 900V560C1510 570 1420 590 1330 620C1230 653 1130 702 1030 716C910 733 795 695 650 650V900Z" fill="rgba(255,255,255,0.12)"/>
</svg>
